<?xml version="1.0"?>
<svg xmlns="http://www.w3.org/2000/svg" id="Outline" viewBox="0 0 512 512" width="512" height="512"><path d="M495.49,301.191c-.265-.711-6.715-17.611-23.511-36.5-15.411-17.338-42.912-39.831-86.41-48.531a8.025,8.025,0,0,0-4.177.282L360,223.813V48a8,8,0,0,0-8-8H304a8,8,0,0,0-8,8,16,16,0,0,1-32,0,8,8,0,0,0-8-8H32a8,8,0,0,0-8,8V160a8,8,0,0,0,8,8,24,24,0,0,1,0,48,8,8,0,0,0-8,8V368a8,8,0,0,0,8,8H152a24,24,0,0,1,0,48,8,8,0,0,0-8,8v32a8,8,0,0,0,8,8H352a8,8,0,0,0,8-8,8,8,0,0,1,16,0,8,8,0,0,0,8,8H488a8,8,0,0,0,8-8V304a7.964,7.964,0,0,0-.516-2.806ZM384.532,232.279c30.246,6.457,55.479,20.755,75.029,42.521a129.537,129.537,0,0,1,15.5,21.2H199.736l103.519-35.7a32.006,32.006,0,0,0,56.736-19.561ZM40,231.2A40.005,40.005,0,0,0,40,152.8V56H249.012a32,32,0,0,0,61.975,0H344V240a16,16,0,0,1-30.311,7.14,8,8,0,0,0-9.767-3.993l-154.53,53.291,0,0A8,8,0,0,0,144,304v56H40ZM480,456H390.629a24,24,0,0,0-45.258,0H160V439.2a40.005,40.005,0,0,0,0-78.392V312H480Z"/><path d="M440,440a32,32,0,1,0-32-32A32.036,32.036,0,0,0,440,440Zm0-48a16,16,0,1,1-16,16A16.019,16.019,0,0,1,440,392Z"/><path d="M232,392a32,32,0,1,0-32-32A32.036,32.036,0,0,0,232,392Zm0-48a16,16,0,1,1-16,16A16.019,16.019,0,0,1,232,344Z"/><path d="M152,120a32,32,0,1,0-32,32A32.036,32.036,0,0,0,152,120Zm-32,16a16,16,0,1,1,16-16A16.019,16.019,0,0,1,120,136Z"/><path d="M296,208a32,32,0,1,0-32-32A32.036,32.036,0,0,0,296,208Zm0-48a16,16,0,1,1-16,16A16.019,16.019,0,0,1,296,160Z"/><path d="M288,440a24,24,0,1,0-24-24A24.028,24.028,0,0,0,288,440Zm0-32a8,8,0,1,1-8,8A8.009,8.009,0,0,1,288,408Z"/><path d="M360,376a24,24,0,1,0-24-24A24.028,24.028,0,0,0,360,376Zm0-32a8,8,0,1,1-8,8A8.009,8.009,0,0,1,360,344Z"/><path d="M184,232a24,24,0,1,0-24-24A24.027,24.027,0,0,0,184,232Zm0-32a8,8,0,1,1-8,8A8.009,8.009,0,0,1,184,200Z"/><path d="M88,296a24,24,0,1,0,24,24A24.027,24.027,0,0,0,88,296Zm0,32a8,8,0,1,1,8-8A8.009,8.009,0,0,1,88,328Z"/><circle cx="408" cy="272" r="8"/><circle cx="104" cy="232" r="8"/><circle cx="240" cy="104" r="8"/></svg>
